<svg xmlns="http://www.w3.org/2000/svg" viewBox="0 0 1600 1000">
<defs><linearGradient id="bg" x1="0" y1="0" x2="1" y2="1"><stop stop-color="#0a1524"/><stop offset="1" stop-color="#162b46"/></linearGradient><linearGradient id="g" x1="0" y1="0" x2="1" y2="1"><stop stop-color="#f2b85b"/><stop offset="1" stop-color="#5a7cff"/></linearGradient><filter id="shadow"><feDropShadow dx="0" dy="28" stdDeviation="28" flood-opacity=".45"/></filter></defs>
<rect width="1600" height="1000" fill="url(#bg)"/><circle cx="1320" cy="180" r="300" fill="#5a7cff" opacity=".11"/><circle cx="250" cy="860" r="340" fill="#f2b85b" opacity=".09"/><path d="M0 820C320 700 500 900 830 810s530-40 770-170v360H0Z" fill="#ffffff05"/>
<g filter="url(#shadow)"><g transform="translate(230 120)"><g transform="rotate(-8 300 300)"><rect x="40" y="70" width="430" height="300" rx="55" fill="#eaf7ff" stroke="#54eae3" stroke-width="18"/><path d="M130 300V145h38l80 96 80-96h38v155h-46v-86l-72 91-72-91v86Z" fill="#163653"/><circle cx="390" cy="135" r="28" fill="#f2b85b"/></g><g transform="translate(470 170) rotate(7 300 260)"><rect x="60" y="30" width="520" height="350" rx="60" fill="#192a43" stroke="#7b8cff" stroke-width="18"/><path d="M170 250 250 115h170l95 135" fill="none" stroke="#54eee5" stroke-width="28"/><circle cx="190" cy="270" r="52" fill="#080c12" stroke="#f2b85b" stroke-width="14"/><circle cx="480" cy="270" r="52" fill="#080c12" stroke="#f2b85b" stroke-width="14"/></g><g transform="translate(290 480) rotate(-4 350 170)"><rect x="40" y="30" width="700" height="250" rx="55" fill="#f6c565" stroke="#fff2bf" stroke-width="15"/><path d="M140 190 240 90h120l95 100" fill="none" stroke="#17263b" stroke-width="25"/><path d="M500 85h120v115H500Z" fill="#17263b"/><path d="M530 120h60v45h-60Z" fill="#5fe9e2"/></g></g></g>
<text x="90" y="110" font-family="Arial, sans-serif" font-size="34" font-weight="800" fill="#f2b85b" letter-spacing="6">MN ANIMAT</text>
<text x="90" y="885" font-family="Arial, sans-serif" font-size="66" font-weight="800" fill="#f6fbff">KIT DE ADESIVOS</text>
<text x="92" y="938" font-family="Arial, sans-serif" font-size="28" fill="#9eb4ce">Engenharia • espaço • veículos • criatividade</text>
</svg>