<svg xmlns="http://www.w3.org/2000/svg" viewBox="0 0 1600 1000" role="img" aria-labelledby="t d"><title id="t">Avião executivo MN Jet</title><desc id="d">Jato executivo conceitual voando entre nuvens</desc><defs><linearGradient id="sky" x2="0" y2="1"><stop stop-color="#071827"/><stop offset=".62" stop-color="#2b6380"/><stop offset="1" stop-color="#f2a65a"/></linearGradient><linearGradient id="body"><stop stop-color="#fff"/><stop offset=".5" stop-color="#a9c6d9"/><stop offset="1" stop-color="#607f94"/></linearGradient><filter id="sh"><feDropShadow dx="0" dy="25" stdDeviation="18" flood-opacity=".45"/></filter></defs><rect width="1600" height="1000" fill="url(#sky)"/><circle cx="1290" cy="205" r="115" fill="#ffd68a" opacity=".8"/><g fill="#fff" opacity=".17"><ellipse cx="310" cy="735" rx="360" ry="100"/><ellipse cx="690" cy="790" rx="470" ry="120"/><ellipse cx="1290" cy="720" rx="420" ry="110"/></g><g transform="translate(70 55) rotate(-6 800 500)" filter="url(#sh)"><path d="M178 531c91-61 268-87 505-102l528-30c107-6 203 24 276 82-53 62-152 97-272 104l-537 33c-253 15-405-7-500-87z" fill="url(#body)" stroke="#d8edf8" stroke-width="7"/><path d="m604 446 234-247h136L848 430zM629 603l282 226H755L505 611z" fill="#94b7ca" stroke="#d8edf8" stroke-width="7"/><path d="m1182 409 104-215h87l-45 230z" fill="#87aabe"/><path d="M1141 465c115-31 218-34 304 16-79 43-176 63-291 64z" fill="#0c2234"/><g fill="#133d56"><ellipse cx="1276" cy="500" rx="85" ry="60"/><ellipse cx="1267" cy="500" rx="49" ry="34" fill="#06121d"/></g><path d="M346 507h625" stroke="#22c7ce" stroke-width="15"/><g fill="#092033"><rect x="870" y="433" width="76" height="36" rx="18"/><rect x="962" y="428" width="76" height="36" rx="18"/><rect x="1054" y="423" width="76" height="36" rx="18"/></g><text x="655" y="557" fill="#062233" font-family="Arial" font-size="75" font-weight="900">MN</text><text x="790" y="552" fill="#125269" font-family="Arial" font-size="30" font-weight="700">JET 250</text></g><text x="90" y="115" fill="#fff" font-family="Arial" font-size="55" font-weight="800">MN JET 250</text><text x="92" y="165" fill="#fff" opacity=".68" font-family="Arial" font-size="24">conceito de transporte executivo e pesquisa aeronáutica</text></svg>
