<svg xmlns="http://www.w3.org/2000/svg" viewBox="0 0 1600 1000">
<defs><linearGradient id="bg" x1="0" y1="0" x2="1" y2="1"><stop stop-color="#0a1524"/><stop offset="1" stop-color="#162b46"/></linearGradient><linearGradient id="g" x1="0" y1="0" x2="1" y2="1"><stop stop-color="#58eee6"/><stop offset="1" stop-color="#6580ff"/></linearGradient><filter id="shadow"><feDropShadow dx="0" dy="28" stdDeviation="28" flood-opacity=".45"/></filter></defs>
<rect width="1600" height="1000" fill="url(#bg)"/><circle cx="1320" cy="180" r="300" fill="#6580ff" opacity=".11"/><circle cx="250" cy="860" r="340" fill="#58eee6" opacity=".09"/><path d="M0 820C320 700 500 900 830 810s530-40 770-170v360H0Z" fill="#ffffff05"/>
<g filter="url(#shadow)"><g transform="translate(360 135)"><path d="M320 40 570 120v400L320 640 70 520V120Z" fill="#17304b" stroke="url(#g)" stroke-width="22"/><path d="M70 120 320 220l250-100M320 220v420" fill="none" stroke="#a6f8f5" stroke-width="12"/><g fill="#315b80" stroke="#6bb7ff" stroke-width="7"><rect x="-170" y="225" width="240" height="270"/><rect x="570" y="225" width="240" height="270"/></g><g stroke="#9bd9ff" stroke-width="5"><path d="M-140 270H40M-140 330H40M-140 390H40M-140 450H40M600 270h180M600 330h180M600 390h180M600 450h180"/><path d="M-90 225v270M-20 225v270M640 225v270M710 225v270"/></g><circle cx="320" cy="360" r="85" fill="#f2b85b"/><circle cx="320" cy="360" r="40" fill="#17263a"/><path d="M165 160h310v300H165Z" fill="none" stroke="#ffffff35" stroke-width="8"/></g></g>
<text x="90" y="110" font-family="Arial, sans-serif" font-size="34" font-weight="800" fill="#58eee6" letter-spacing="6">MN ANIMAT</text>
<text x="90" y="885" font-family="Arial, sans-serif" font-size="66" font-weight="800" fill="#f6fbff">CUBESAT MN-1</text>
<text x="92" y="938" font-family="Arial, sans-serif" font-size="28" fill="#9eb4ce">Estrutura modular • telemetria simulada • uso educacional</text>
</svg>