<svg xmlns="http://www.w3.org/2000/svg" viewBox="0 0 1600 1000">
<defs><linearGradient id="bg" x1="0" y1="0" x2="1" y2="1"><stop stop-color="#0a1524"/><stop offset="1" stop-color="#162b46"/></linearGradient><linearGradient id="g" x1="0" y1="0" x2="1" y2="1"><stop stop-color="#50e8df"/><stop offset="1" stop-color="#756cff"/></linearGradient><filter id="shadow"><feDropShadow dx="0" dy="28" stdDeviation="28" flood-opacity=".45"/></filter></defs>
<rect width="1600" height="1000" fill="url(#bg)"/><circle cx="1320" cy="180" r="300" fill="#756cff" opacity=".11"/><circle cx="250" cy="860" r="340" fill="#50e8df" opacity=".09"/><path d="M0 820C320 700 500 900 830 810s530-40 770-170v360H0Z" fill="#ffffff05"/>
<g filter="url(#shadow)"><g transform="translate(230 165)"><g stroke="url(#g)" stroke-width="28" stroke-linecap="round"><path d="M570 360 230 170M570 360 910 170M570 360 230 550M570 360 910 550"/></g><g fill="#0a0f17" stroke="#65e7df" stroke-width="14"><ellipse cx="180" cy="140" rx="180" ry="42"/><ellipse cx="960" cy="140" rx="180" ry="42"/><ellipse cx="180" cy="580" rx="180" ry="42"/><ellipse cx="960" cy="580" rx="180" ry="42"/></g><path d="M470 270h200l90 90-90 90H470l-90-90Z" fill="#1f3c5a" stroke="#7e93ff" stroke-width="22"/><circle cx="570" cy="360" r="62" fill="#f2b85b"/><path d="M530 430v110h80V430" fill="#17283c" stroke="#9acbff" stroke-width="14"/><circle cx="570" cy="548" r="34" fill="#4b7cff"/></g></g>
<text x="90" y="110" font-family="Arial, sans-serif" font-size="34" font-weight="800" fill="#50e8df" letter-spacing="6">MN ANIMAT</text>
<text x="90" y="885" font-family="Arial, sans-serif" font-size="66" font-weight="800" fill="#f6fbff">DRONE DE INSPEÇÃO</text>
<text x="92" y="938" font-family="Arial, sans-serif" font-size="28" fill="#9eb4ce">Câmera estabilizada • estrutura leve • missões visuais</text>
</svg>