<svg xmlns="http://www.w3.org/2000/svg" viewBox="0 0 1600 1000">
<defs><linearGradient id="bg" x1="0" y1="0" x2="1" y2="1"><stop stop-color="#0a1524"/><stop offset="1" stop-color="#162b46"/></linearGradient><linearGradient id="g" x1="0" y1="0" x2="1" y2="1"><stop stop-color="#43d6d0"/><stop offset="1" stop-color="#2f6ef2"/></linearGradient><filter id="shadow"><feDropShadow dx="0" dy="28" stdDeviation="28" flood-opacity=".45"/></filter></defs>
<rect width="1600" height="1000" fill="url(#bg)"/><circle cx="1320" cy="180" r="300" fill="#2f6ef2" opacity=".11"/><circle cx="250" cy="860" r="340" fill="#43d6d0" opacity=".09"/><path d="M0 820C320 700 500 900 830 810s530-40 770-170v360H0Z" fill="#ffffff05"/>
<g filter="url(#shadow)"><g transform="translate(180 170)"><circle cx="290" cy="520" r="145" fill="#090d13" stroke="#6ae4d4" stroke-width="24"/><circle cx="290" cy="520" r="45" fill="#22354c"/><circle cx="940" cy="520" r="145" fill="#090d13" stroke="#6ae4d4" stroke-width="24"/><circle cx="940" cy="520" r="45" fill="#22354c"/><path d="M290 520 520 250 690 520 430 520 565 328h225l150 192" fill="none" stroke="url(#g)" stroke-width="34" stroke-linejoin="round"/><path d="M505 250h145" stroke="#f2b85b" stroke-width="26" stroke-linecap="round"/><path d="M780 220h220v180H780Z" fill="#1a3551" stroke="#59ded7" stroke-width="15"/><path d="M790 240h200v140H790Z" fill="#244a6b"/><path d="M510 235 450 160h160" fill="none" stroke="#b9ffff" stroke-width="20" stroke-linecap="round"/><rect x="553" y="340" width="105" height="72" rx="18" fill="#2c6df2"/></g></g>
<text x="90" y="110" font-family="Arial, sans-serif" font-size="34" font-weight="800" fill="#43d6d0" letter-spacing="6">MN ANIMAT</text>
<text x="90" y="885" font-family="Arial, sans-serif" font-size="66" font-weight="800" fill="#f6fbff">E-BIKE CARGO</text>
<text x="92" y="938" font-family="Arial, sans-serif" font-size="28" fill="#9eb4ce">Assistência elétrica • caixa modular • entregas locais</text>
</svg>