<svg xmlns="http://www.w3.org/2000/svg" viewBox="0 0 1600 1000" role="img" aria-labelledby="t d"><title id="t">Foguete sonda educacional</title><desc id="d">Foguete conceitual de pesquisa subindo acima das nuvens</desc><defs><linearGradient id="sky" x2="0" y2="1"><stop stop-color="#020713"/><stop offset=".58" stop-color="#15385a"/><stop offset="1" stop-color="#e17b42"/></linearGradient><linearGradient id="flame" x2="0" y2="1"><stop stop-color="#fff"/><stop offset=".3" stop-color="#ffe07b"/><stop offset="1" stop-color="#ff4f20"/></linearGradient><filter id="gl"><feGaussianBlur stdDeviation="22"/></filter></defs><rect width="1600" height="1000" fill="url(#sky)"/><g fill="#fff" opacity=".8"><circle cx="180" cy="160" r="3"/><circle cx="330" cy="280" r="4"/><circle cx="1220" cy="150" r="4"/><circle cx="1400" cy="310" r="3"/><circle cx="1070" cy="250" r="3"/></g><g fill="#fff" opacity=".14"><ellipse cx="330" cy="810" rx="370" ry="100"/><ellipse cx="860" cy="870" rx="520" ry="120"/><ellipse cx="1390" cy="805" rx="330" ry="95"/></g><g transform="translate(805 500)"><path d="M0 285c-38 0-76-5-112-15l68-128h88l68 128c-36 10-74 15-112 15z" fill="#223346"/><path d="M-74 143C-70-122-53-312 0-398c53 86 70 276 74 541z" fill="#d8e9f2" stroke="#fff" stroke-width="8"/><path d="M-55-111C-35-236-17-323 0-366c17 43 35 130 55 255z" fill="#43d6d0"/><circle cy="-85" r="42" fill="#0b2e43" stroke="#43d6d0" stroke-width="9"/><path d="M-72 106-160 220l101-37zM72 106l160 114-101-37z" fill="#9db6c6"/><path d="M-36 260 0 530l36-270z" fill="#ff5f2c" opacity=".35" filter="url(#gl)"/><path d="M-24 252 0 470l24-218z" fill="url(#flame)"/><text x="0" y="40" text-anchor="middle" fill="#082133" font-family="Arial" font-size="48" font-weight="900" transform="rotate(-90)">MN SONDA</text></g><text x="90" y="115" fill="#fff" font-family="Arial" font-size="55" font-weight="800">FOGUETE SONDA MN</text><text x="92" y="165" fill="#fff" opacity=".68" font-family="Arial" font-size="24">modelo educacional para estudo de estruturas, telemetria e recuperação</text></svg>
