<svg xmlns="http://www.w3.org/2000/svg" viewBox="0 0 1600 1000" role="img" aria-labelledby="t d">
<title id="t">Fórmula MN R1</title><desc id="d">Carro fórmula conceitual preto e ciano em pista</desc>
<defs><linearGradient id="bg" x1="0" y1="0" x2="1" y2="1"><stop stop-color="#06111f"/><stop offset="1" stop-color="#173957"/></linearGradient><linearGradient id="car" x1="0" y1="0" x2="1" y2="1"><stop stop-color="#253346"/><stop offset=".45" stop-color="#090e16"/><stop offset="1" stop-color="#1a283a"/></linearGradient><linearGradient id="cyan"><stop stop-color="#74fff7"/><stop offset="1" stop-color="#11aeb8"/></linearGradient><filter id="sh"><feDropShadow dx="0" dy="28" stdDeviation="24" flood-opacity=".55"/></filter></defs>
<rect width="1600" height="1000" fill="url(#bg)"/><circle cx="1310" cy="170" r="290" fill="#43d6d0" opacity=".08"/><path d="M0 720 1600 590v410H0z" fill="#070b12"/><path d="M0 820 1600 680" stroke="#a8c8dc" stroke-opacity=".18" stroke-width="12"/><g filter="url(#sh)"><ellipse cx="805" cy="785" rx="590" ry="85" fill="#000" opacity=".45"/><g fill="#06080d" stroke="#34465a" stroke-width="18"><circle cx="445" cy="724" r="125"/><circle cx="1160" cy="704" r="145"/></g><g fill="#1c2835" stroke="#07090e" stroke-width="28"><circle cx="445" cy="724" r="76"/><circle cx="1160" cy="704" r="88"/></g><path d="M275 690 435 650 568 624 713 485 994 478 1122 552 1265 590 1328 651 1210 682 1060 660 876 700 646 704 505 674 292 724z" fill="url(#car)" stroke="#5b6e82" stroke-width="8"/><path d="m576 625 175-194 138 8 105 60-239 54z" fill="#0a111a"/><path d="M737 463c31-88 74-131 136-131 65 0 105 42 131 124l-92 4c-13-45-31-67-59-67-30 0-51 24-66 72z" fill="#0c151f" stroke="#64788f" stroke-width="8"/><path d="M813 381h82v87h-82z" fill="#111d28"/><path d="M643 672h390l-119 47H727z" fill="url(#cyan)"/><path d="m306 663 181-72 48 21-148 68zM1112 548l206 22 69 76-153-25z" fill="#0b1119" stroke="#43d6d0" stroke-width="8"/><path d="M337 605h182v30H337zM1201 481h230v34h-230z" fill="#0a0d13"/><path d="M1253 477v160M1385 476v160" stroke="#344a61" stroke-width="15"/><path d="M699 586 924 515 1090 562 900 621z" fill="#122131"/><text x="820" y="598" text-anchor="middle" fill="#43d6d0" font-family="Arial" font-size="78" font-weight="900">MN</text><text x="820" y="638" text-anchor="middle" fill="#fff" opacity=".82" font-family="Arial" font-size="27" font-weight="700">R1 FORMULA</text></g>
<g fill="#fff"><text x="90" y="120" font-family="Arial" font-size="54" font-weight="800">FÓRMULA MN R1</text><text x="92" y="170" font-family="Arial" font-size="24" opacity=".65">engenharia, telemetria e aerodinâmica em um conceito original</text></g>
</svg>
