<svg xmlns="http://www.w3.org/2000/svg" viewBox="0 0 1600 1000" role="img" aria-labelledby="t d"><title id="t">Helicóptero MN H125</title><desc id="d">Helicóptero leve conceitual em hangar futurista</desc><defs><linearGradient id="bg" x2="1" y2="1"><stop stop-color="#07101c"/><stop offset="1" stop-color="#244460"/></linearGradient><linearGradient id="b"><stop stop-color="#202e3d"/><stop offset=".55" stop-color="#070c13"/><stop offset="1" stop-color="#203347"/></linearGradient><filter id="s"><feDropShadow dx="0" dy="32" stdDeviation="22" flood-opacity=".5"/></filter></defs><rect width="1600" height="1000" fill="url(#bg)"/><path d="M0 760h1600v240H0z" fill="#0a0d12"/><path d="M0 760h1600" stroke="#5e869d" stroke-opacity=".3" stroke-width="8"/><g filter="url(#s)"><ellipse cx="810" cy="790" rx="520" ry="76" fill="#000" opacity=".38"/><path d="M410 594c44-190 210-302 465-283 216 17 347 125 374 302-36 139-173 214-402 214-237 0-393-76-437-233z" fill="url(#b)" stroke="#536b80" stroke-width="8"/><path d="M471 542c74-131 192-189 355-177l-54 244H464z" fill="#0e2a3c"/><path d="M813 365c164 4 272 70 331 197H782z" fill="#102c3e"/><path d="M1219 566h243l-45 76h-210z" fill="#111c28"/><path d="M1393 559 1515 433l32 28-98 135z" fill="#172b3c"/><circle cx="1496" cy="470" r="58" fill="none" stroke="#43d6d0" stroke-width="16"/><path d="M565 774h483M655 771l-74 72M996 771l77 72" stroke="#9cb5c5" stroke-width="18" stroke-linecap="round"/><path d="M839 318v-88" stroke="#738ca0" stroke-width="16"/><path d="M246 218h1190" stroke="#a7cad8" stroke-width="14" stroke-linecap="round"/><path d="M840 217 454 94M840 217 1218 86" stroke="#567287" stroke-width="8"/><path d="M435 607h765" stroke="#43d6d0" stroke-width="14"/><text x="811" y="687" text-anchor="middle" fill="#43d6d0" font-family="Arial" font-size="75" font-weight="900">MN</text><text x="815" y="731" text-anchor="middle" fill="#fff" opacity=".78" font-family="Arial" font-size="25" font-weight="700">H125 LIGHT</text></g><text x="90" y="115" fill="#fff" font-family="Arial" font-size="55" font-weight="800">HELICÓPTERO MN H125</text><text x="92" y="165" fill="#fff" opacity=".65" font-family="Arial" font-size="24">plataforma conceitual para mobilidade, observação e treinamento</text></svg>
