<svg xmlns="http://www.w3.org/2000/svg" viewBox="0 0 1600 1000">
<defs><linearGradient id="bg" x1="0" y1="0" x2="1" y2="1"><stop stop-color="#0a1524"/><stop offset="1" stop-color="#162b46"/></linearGradient><linearGradient id="g" x1="0" y1="0" x2="1" y2="1"><stop stop-color="#43d6d0"/><stop offset="1" stop-color="#2f6ef2"/></linearGradient><filter id="shadow"><feDropShadow dx="0" dy="28" stdDeviation="28" flood-opacity=".45"/></filter></defs>
<rect width="1600" height="1000" fill="url(#bg)"/><circle cx="1320" cy="180" r="300" fill="#2f6ef2" opacity=".11"/><circle cx="250" cy="860" r="340" fill="#43d6d0" opacity=".09"/><path d="M0 820C320 700 500 900 830 810s530-40 770-170v360H0Z" fill="#ffffff05"/>
<g filter="url(#shadow)"><g transform="translate(190 160)"><circle cx="235" cy="520" r="145" fill="#070b10" stroke="url(#g)" stroke-width="30"/><circle cx="235" cy="520" r="60" fill="#1a2c43"/><circle cx="915" cy="520" r="145" fill="#070b10" stroke="url(#g)" stroke-width="30"/><circle cx="915" cy="520" r="60" fill="#1a2c43"/><path d="M215 470 350 190h520l170 285-135 70H360Z" fill="none" stroke="url(#g)" stroke-width="42" stroke-linejoin="round"/><path d="M390 195 510 85h250l110 105" fill="none" stroke="#d6ffff" stroke-width="34" stroke-linecap="round"/><path d="M495 188 555 100h150l72 88" fill="#10263c" stroke="#4d90ff" stroke-width="18"/><rect x="505" y="245" width="250" height="145" rx="40" fill="#0c1a2b" stroke="#ffffff2a" stroke-width="8"/><path d="M760 362h205l90 110-142 49Z" fill="#f2b85b"/><path d="M1040 410h120l70 95-176 15Z" fill="#263f5a" stroke="#61ded7" stroke-width="12"/></g></g>
<text x="90" y="110" font-family="Arial, sans-serif" font-size="34" font-weight="800" fill="#43d6d0" letter-spacing="6">MN ANIMAT</text>
<text x="90" y="885" font-family="Arial, sans-serif" font-size="66" font-weight="800" fill="#f6fbff">KART CROSS X1</text>
<text x="92" y="938" font-family="Arial, sans-serif" font-size="28" fill="#9eb4ce">Chassi tubular • suspensão independente • uso off-road</text>
</svg>