<svg xmlns="http://www.w3.org/2000/svg" viewBox="0 0 1600 1000">
<defs><linearGradient id="bg" x1="0" y1="0" x2="1" y2="1"><stop stop-color="#0a1524"/><stop offset="1" stop-color="#162b46"/></linearGradient><linearGradient id="g" x1="0" y1="0" x2="1" y2="1"><stop stop-color="#9c7cff"/><stop offset="1" stop-color="#4e7eff"/></linearGradient><filter id="shadow"><feDropShadow dx="0" dy="28" stdDeviation="28" flood-opacity=".45"/></filter></defs>
<rect width="1600" height="1000" fill="url(#bg)"/><circle cx="1320" cy="180" r="300" fill="#4e7eff" opacity=".11"/><circle cx="250" cy="860" r="340" fill="#9c7cff" opacity=".09"/><path d="M0 820C320 700 500 900 830 810s530-40 770-170v360H0Z" fill="#ffffff05"/>
<g filter="url(#shadow)"><g transform="translate(420 90)"><path d="M210 130 75 210 0 415l120 55 75-110v410h440V360l75 110 120-55-75-205-135-80c-35 65-90 95-155 95s-120-30-155-95Z" fill="#231a38" stroke="url(#g)" stroke-width="22"/><path d="M260 160c12-110 110-160 205-160s190 50 205 160l-100 85H360Z" fill="#2e2450" stroke="#8a7cff" stroke-width="18"/><path d="M315 330h300v210H315Z" fill="#182a43"/><circle cx="465" cy="430" r="85" fill="#f2b85b"/><path d="M430 430c45-70 100-70 150 0-50 58-105 58-150 0Z" fill="#101828"/></g></g>
<text x="90" y="110" font-family="Arial, sans-serif" font-size="34" font-weight="800" fill="#9c7cff" letter-spacing="6">MN ANIMAT</text>
<text x="90" y="885" font-family="Arial, sans-serif" font-size="66" font-weight="800" fill="#f6fbff">MOLETOM ÓRBITA</text>
<text x="92" y="938" font-family="Arial, sans-serif" font-size="28" fill="#9eb4ce">Capuz • arte espacial • modelagem unissex</text>
</svg>