<svg xmlns="http://www.w3.org/2000/svg" viewBox="0 0 1600 1000">
<defs><linearGradient id="bg" x1="0" y1="0" x2="1" y2="1"><stop stop-color="#0a1524"/><stop offset="1" stop-color="#162b46"/></linearGradient><linearGradient id="g" x1="0" y1="0" x2="1" y2="1"><stop stop-color="#5af3e9"/><stop offset="1" stop-color="#6f75ff"/></linearGradient><filter id="shadow"><feDropShadow dx="0" dy="28" stdDeviation="28" flood-opacity=".45"/></filter></defs>
<rect width="1600" height="1000" fill="url(#bg)"/><circle cx="1320" cy="180" r="300" fill="#6f75ff" opacity=".11"/><circle cx="250" cy="860" r="340" fill="#5af3e9" opacity=".09"/><path d="M0 820C320 700 500 900 830 810s530-40 770-170v360H0Z" fill="#ffffff05"/>
<g filter="url(#shadow)"><g transform="translate(210 170)"><circle cx="300" cy="500" r="150" fill="#080c13" stroke="#6c8eff" stroke-width="28"/><circle cx="300" cy="500" r="60" fill="#1a2940"/><circle cx="945" cy="500" r="150" fill="#080c13" stroke="#6c8eff" stroke-width="28"/><circle cx="945" cy="500" r="60" fill="#1a2940"/><path d="M285 452 430 215h335l200 245" fill="none" stroke="url(#g)" stroke-width="40" stroke-linecap="round"/><path d="M430 215 350 110h295l85 105" fill="#203858" stroke="#54efe7" stroke-width="18"/><path d="M535 112 620 35h135l65 80-168 45Z" fill="#111e31" stroke="#7b94ff" stroke-width="16"/><path d="M465 235h345l88 178-180 60H420Z" fill="#152c47" stroke="#ffffff24" stroke-width="10"/><path d="M560 285h160v115H560Z" fill="#2f6ef2"/><path d="M930 390h150l95 105-155 15Z" fill="#f2b85b"/></g></g>
<text x="90" y="110" font-family="Arial, sans-serif" font-size="34" font-weight="800" fill="#5af3e9" letter-spacing="6">MN ANIMAT</text>
<text x="90" y="885" font-family="Arial, sans-serif" font-size="66" font-weight="800" fill="#f6fbff">E-VOLT URBAN</text>
<text x="92" y="938" font-family="Arial, sans-serif" font-size="28" fill="#9eb4ce">Moto elétrica compacta • baixo ruído • design modular</text>
</svg>