<svg xmlns="http://www.w3.org/2000/svg" viewBox="0 0 1600 1000">
<defs><linearGradient id="bg" x1="0" y1="0" x2="1" y2="1"><stop stop-color="#0a1524"/><stop offset="1" stop-color="#162b46"/></linearGradient><linearGradient id="g" x1="0" y1="0" x2="1" y2="1"><stop stop-color="#5af1e9"/><stop offset="1" stop-color="#7d68ff"/></linearGradient><filter id="shadow"><feDropShadow dx="0" dy="28" stdDeviation="28" flood-opacity=".45"/></filter></defs>
<rect width="1600" height="1000" fill="url(#bg)"/><circle cx="1320" cy="180" r="300" fill="#7d68ff" opacity=".11"/><circle cx="250" cy="860" r="340" fill="#5af1e9" opacity=".09"/><path d="M0 820C320 700 500 900 830 810s530-40 770-170v360H0Z" fill="#ffffff05"/>
<g filter="url(#shadow)"><g transform="translate(270 190)"><rect x="80" y="40" width="900" height="520" rx="70" fill="#09101b" stroke="#263a52" stroke-width="24"/><rect x="125" y="85" width="810" height="430" rx="46" fill="#0d1f34" stroke="url(#g)" stroke-width="18"/><path d="M330 390V205h50l105 130 105-130h50v185h-56V285l-99 120-99-120v105Z" fill="none" stroke="#5af6ec" stroke-width="18"/><circle cx="772" cy="300" r="95" fill="none" stroke="#f2b85b" stroke-width="22"/><path d="M820 220 740 300l80 80" fill="none" stroke="#f2b85b" stroke-width="20" stroke-linecap="round"/><path d="M250 585h570" stroke="#52708f" stroke-width="24" stroke-linecap="round"/><path d="M390 585v110M680 585v110" stroke="#52708f" stroke-width="24"/></g></g>
<text x="90" y="110" font-family="Arial, sans-serif" font-size="34" font-weight="800" fill="#5af1e9" letter-spacing="6">MN ANIMAT</text>
<text x="90" y="885" font-family="Arial, sans-serif" font-size="66" font-weight="800" fill="#f6fbff">PLACA LED PERSONALIZADA</text>
<text x="92" y="938" font-family="Arial, sans-serif" font-size="28" fill="#9eb4ce">Acrílico • iluminação • identidade visual</text>
</svg>