<svg xmlns="http://www.w3.org/2000/svg" viewBox="0 0 1600 1000" role="img" aria-labelledby="t d"><title id="t">Robô logístico MN Cargo</title><desc id="d">Robô autônomo de transporte interno em armazém</desc><defs><linearGradient id="bg" x2="1" y2="1"><stop stop-color="#07101d"/><stop offset="1" stop-color="#243d4c"/></linearGradient><linearGradient id="bot"><stop stop-color="#293c4b"/><stop offset=".5" stop-color="#0b1118"/><stop offset="1" stop-color="#172a38"/></linearGradient><filter id="s"><feDropShadow dx="0" dy="30" stdDeviation="20" flood-opacity=".6"/></filter></defs><rect width="1600" height="1000" fill="url(#bg)"/><path d="M0 715h1600v285H0z" fill="#0d131a"/><g opacity=".22" fill="#9ab4c4"><rect x="80" y="230" width="280" height="430"/><rect x="1240" y="210" width="280" height="450"/></g><g opacity=".35" stroke="#43d6d0" stroke-width="6"><path d="M0 820h1600M180 720 70 1000M1420 720l110 280"/></g><g filter="url(#s)"><ellipse cx="810" cy="813" rx="390" ry="70" fill="#000" opacity=".45"/><path d="M464 570h692l90 218H380z" fill="url(#bot)" stroke="#526a7d" stroke-width="11"/><path d="M524 495h575l60 98H470z" fill="#152533" stroke="#3f586c" stroke-width="9"/><rect x="600" y="262" width="420" height="238" rx="24" fill="#c77b28"/><rect x="628" y="290" width="364" height="180" rx="12" fill="#eaa348"/><path d="M810 496V386" stroke="#17212c" stroke-width="12"/><rect x="765" y="439" width="90" height="60" rx="20" fill="#0d1822" stroke="#43d6d0" stroke-width="8"/><circle cx="810" cy="468" r="15" fill="#43d6d0"/><g fill="#0a0d12" stroke="#31485a" stroke-width="10"><circle cx="520" cy="777" r="58"/><circle cx="1105" cy="777" r="58"/></g><path d="M470 646h690" stroke="#43d6d0" stroke-width="16"/><text x="810" y="706" text-anchor="middle" fill="#43d6d0" font-family="Arial" font-size="70" font-weight="900">MN</text><text x="810" y="750" text-anchor="middle" fill="#fff" opacity=".8" font-family="Arial" font-size="24" font-weight="700">CARGO AMR</text></g><text x="90" y="115" fill="#fff" font-family="Arial" font-size="55" font-weight="800">ROBÔ LOGÍSTICO MN CARGO</text><text x="92" y="165" fill="#fff" opacity=".68" font-family="Arial" font-size="24">transporte interno, rotas programadas e desvio de obstáculos</text></svg>
