<svg xmlns="http://www.w3.org/2000/svg" viewBox="0 0 1600 1000" role="img" aria-labelledby="t d"><title id="t">Robô autônomo doméstico MN Clean</title><desc id="d">Robô redondo de limpeza com sensores e mapeamento</desc><defs><radialGradient id="bg"><stop stop-color="#1f4858"/><stop offset="1" stop-color="#07101c"/></radialGradient><linearGradient id="r"><stop stop-color="#263a4b"/><stop offset=".5" stop-color="#0b1119"/><stop offset="1" stop-color="#101d29"/></linearGradient><filter id="s"><feDropShadow dx="0" dy="36" stdDeviation="28" flood-opacity=".65"/></filter></defs><rect width="1600" height="1000" fill="url(#bg)"/><path d="M0 730 1600 630v370H0z" fill="#111922"/><g opacity=".35" stroke="#69f5ee" fill="none"><circle cx="835" cy="540" r="330"/><circle cx="835" cy="540" r="435"/><path d="M835 540 1350 260M835 540 270 300M835 540 1320 800"/></g><g filter="url(#s)"><ellipse cx="820" cy="792" rx="390" ry="72" fill="#000" opacity=".5"/><ellipse cx="820" cy="620" rx="360" ry="210" fill="url(#r)" stroke="#51697d" stroke-width="12"/><ellipse cx="820" cy="585" rx="310" ry="166" fill="#101b26" stroke="#263b4d" stroke-width="10"/><ellipse cx="820" cy="520" rx="95" ry="56" fill="#21394b" stroke="#43d6d0" stroke-width="11"/><rect x="774" y="410" width="92" height="95" rx="30" fill="#0b141e" stroke="#5c7a90" stroke-width="9"/><circle cx="820" cy="450" r="23" fill="#43d6d0"/><path d="M566 620h80M994 620h80" stroke="#43d6d0" stroke-width="16" stroke-linecap="round"/><path d="M675 719c92 41 198 41 290 0" stroke="#9eb0c8" stroke-width="9" fill="none"/><text x="820" y="610" text-anchor="middle" fill="#43d6d0" font-family="Arial" font-size="70" font-weight="900">MN</text><text x="820" y="653" text-anchor="middle" fill="#fff" opacity=".8" font-family="Arial" font-size="24" font-weight="700">CLEAN AUTONOMOUS</text></g><g fill="#fff"><text x="90" y="115" font-family="Arial" font-size="55" font-weight="800">ROBÔ AUTÔNOMO MN CLEAN</text><text x="92" y="165" font-family="Arial" font-size="24" opacity=".68">mapeamento, desvio de obstáculos e limpeza programada</text></g></svg>
