<svg xmlns="http://www.w3.org/2000/svg" viewBox="0 0 1600 1000">
<defs><linearGradient id="bg" x1="0" y1="0" x2="1" y2="1"><stop stop-color="#0a1524"/><stop offset="1" stop-color="#162b46"/></linearGradient><linearGradient id="g" x1="0" y1="0" x2="1" y2="1"><stop stop-color="#43d6d0"/><stop offset="1" stop-color="#2f6ef2"/></linearGradient><filter id="shadow"><feDropShadow dx="0" dy="28" stdDeviation="28" flood-opacity=".45"/></filter></defs>
<rect width="1600" height="1000" fill="url(#bg)"/><circle cx="1320" cy="180" r="300" fill="#2f6ef2" opacity=".11"/><circle cx="250" cy="860" r="340" fill="#43d6d0" opacity=".09"/><path d="M0 820C320 700 500 900 830 810s530-40 770-170v360H0Z" fill="#ffffff05"/>
<g filter="url(#shadow)"><g transform="translate(230 190)"><g fill="#080c12" stroke="#61dcd5" stroke-width="18"><circle cx="170" cy="490" r="100"/><circle cx="410" cy="540" r="100"/><circle cx="650" cy="490" r="100"/><circle cx="890" cy="540" r="100"/><circle cx="1130" cy="490" r="100"/></g><path d="M185 420 330 260h620l185 160-70 95H260Z" fill="#1a3450" stroke="url(#g)" stroke-width="28"/><path d="M460 260 540 100h200l90 160" fill="#17304a" stroke="#8fb8ff" stroke-width="22"/><rect x="535" y="125" width="210" height="120" rx="26" fill="#274e70"/><circle cx="645" cy="185" r="42" fill="#f2b85b"/><path d="M645 100V20" stroke="#5af0e8" stroke-width="14"/><circle cx="645" cy="5" r="20" fill="#5af0e8"/><path d="M300 370h720" stroke="#ffffff30" stroke-width="10"/></g></g>
<text x="90" y="110" font-family="Arial, sans-serif" font-size="34" font-weight="800" fill="#43d6d0" letter-spacing="6">MN ANIMAT</text>
<text x="90" y="885" font-family="Arial, sans-serif" font-size="66" font-weight="800" fill="#f6fbff">ROVER ATLAS MINI</text>
<text x="92" y="938" font-family="Arial, sans-serif" font-size="28" fill="#9eb4ce">6 rodas • sensores modulares • exploração robótica</text>
</svg>