<svg xmlns="http://www.w3.org/2000/svg" viewBox="0 0 260 80" fill="none">
  <defs>
    <linearGradient id="g" x1="0" y1="0" x2="1" y2="1">
      <stop stop-color="#ff8b2c"/>
      <stop offset="1" stop-color="#ff5a00"/>
    </linearGradient>
  </defs>
  <rect width="260" height="80" rx="18" fill="#090b10"/>
  <path d="M22 55V19h12l17 18 17-18h12v36H69V35L51 54 33 35v20Z" fill="url(#g)"/>
  <path d="M91 24h19c9.5 0 15 4.4 15 11 0 4.8-2.8 8.2-7.2 10L126 56h-14l-6.7-9.3h-2.3V56H91V24Zm18.1 13.7c2.4 0 3.9-1 3.9-2.9 0-2-1.5-2.9-3.9-2.9h-6.1v5.8h6.1Z" fill="#f5f7fb"/>
  <path d="M131.5 24H162v8h-18.4v4.3h16.1v7.6h-16.1V48H162v8h-30.5V24Z" fill="#f5f7fb"/>
  <path d="M170 24h12.7l8.5 14.4L199.7 24h12.5v32H201V40.8l-9.8 15.5H191l-9.7-15.4V56H170V24Z" fill="#f5f7fb"/>
  <path d="M218.7 24h12.1l9.3 32h-11.8l-1-3.8h-9.8l-1.1 3.8H207l11.7-32Zm6.6 20.9-2.7-9.7-2.8 9.7h5.5Z" fill="#f5f7fb"/>
</svg>